<svg width="25" height="24" viewBox="0 0 25 24" fill="none" xmlns="http://www.w3.org/2000/svg">
<mask id="mask0_130_257" style="mask-type:alpha" maskUnits="userSpaceOnUse" x="0" y="0" width="25" height="24">
<rect x="0.300781" width="24" height="24" fill="#D9D9D9"/>
</mask>
<g mask="url(#mask0_130_257)">
<path d="M11.1508 21.525C10.2508 20.875 9.28845 20.35 8.26378 19.95C7.23845 19.55 6.16745 19.275 5.05078 19.125C4.55078 19.0583 4.13411 18.8457 3.80078 18.487C3.46745 18.129 3.30078 17.7167 3.30078 17.25V10.2C3.30078 9.56667 3.51745 9.04567 3.95078 8.637C4.38411 8.229 4.89245 8.075 5.47578 8.175C6.75911 8.39167 7.98011 8.78333 9.13878 9.35C10.2968 9.91667 11.3508 10.65 12.3008 11.55C13.2508 10.65 14.3051 9.91667 15.4638 9.35C16.6218 8.78333 17.8424 8.39167 19.1258 8.175C19.7091 8.075 20.2174 8.229 20.6508 8.637C21.0841 9.04567 21.3008 9.56667 21.3008 10.2V17.25C21.3008 17.7167 21.1341 18.129 20.8008 18.487C20.4674 18.8457 20.0508 19.0583 19.5508 19.125C18.4341 19.275 17.3634 19.55 16.3388 19.95C15.3134 20.35 14.3508 20.875 13.4508 21.525C13.1174 21.775 12.7341 21.9 12.3008 21.9C11.8674 21.9 11.4841 21.775 11.1508 21.525ZM12.3008 19.9C13.3508 19.1167 14.4674 18.4917 15.6508 18.025C16.8341 17.5583 18.0508 17.25 19.3008 17.1V10.2C18.0841 10.4167 16.8884 10.854 15.7138 11.512C14.5384 12.1707 13.4008 13.05 12.3008 14.15C11.2008 13.05 10.0634 12.1707 8.88878 11.512C7.71345 10.854 6.51745 10.4167 5.30078 10.2V17.1C6.55078 17.25 7.76745 17.5583 8.95078 18.025C10.1341 18.4917 11.2508 19.1167 12.3008 19.9ZM12.3008 9C11.2008 9 10.2591 8.60833 9.47578 7.825C8.69245 7.04167 8.30078 6.1 8.30078 5C8.30078 3.9 8.69245 2.95833 9.47578 2.175C10.2591 1.39167 11.2008 1 12.3008 1C13.4008 1 14.3424 1.39167 15.1258 2.175C15.9091 2.95833 16.3008 3.9 16.3008 5C16.3008 6.1 15.9091 7.04167 15.1258 7.825C14.3424 8.60833 13.4008 9 12.3008 9ZM12.3008 7C12.8508 7 13.3218 6.804 13.7138 6.412C14.1051 6.02067 14.3008 5.55 14.3008 5C14.3008 4.45 14.1051 3.979 13.7138 3.587C13.3218 3.19567 12.8508 3 12.3008 3C11.7508 3 11.2801 3.19567 10.8888 3.587C10.4968 3.979 10.3008 4.45 10.3008 5C10.3008 5.55 10.4968 6.02067 10.8888 6.412C11.2801 6.804 11.7508 7 12.3008 7Z" fill="#92929D"/>
</g>
</svg>
